<svg xmlns="http://www.w3.org/2000/svg" xmlns:xlink="http://www.w3.org/1999/xlink" width="1200px" height="1200px" viewBox="0 0 1200 1200">
  <g id="rl_OCRkh-dpAFubx-OZkY">
<g style="">
		<g id="Layer_1-2">
<path style="stroke: rgb(193,193,193); stroke-width: 0; stroke-dasharray: none; stroke-linecap: butt; stroke-dashoffset: 0; stroke-linejoin: miter; stroke-miterlimit: 4; fill: rgb(0,0,0); fill-rule: nonzero; opacity: 1;" transform="matrix(4.902269 0 0 4.902269 600.29679 600.304632) matrix(1 0 0 1 0 0)  translate(-111.674975, -111.68)" d="M 111.68 223.36 C 96.76 223.47 81.98 220.53 68.24 214.72 C 41.40 203.33 20.03 181.96 8.64 155.12 C 2.83 141.38 -0.11 126.60 -0.00 111.68 C -0.11 96.76 2.83 81.98 8.64 68.24 C 20.04 41.40 41.40 20.04 68.24 8.64 C 81.98 2.83 96.76 -0.11 111.68 -0.00 C 126.56 -0.10 141.30 2.84 155.00 8.64 C 181.84 20.05 203.22 41.41 214.65 68.24 C 220.50 81.97 223.46 96.76 223.35 111.68 C 223.46 126.60 220.50 141.39 214.65 155.12 C 203.23 181.96 181.85 203.32 155.00 214.72 C 141.30 220.52 126.56 223.46 111.68 223.36 Z M 46.93 137.36 C 38.07 136.76 29.34 134.89 21.00 131.82 C 13.81 129.15 7.25 125.04 1.72 119.73 L 7.72 113.51 C 12.58 118.09 18.29 121.65 24.54 124.00 C 31.93 126.72 39.68 128.33 47.54 128.78 Z M 111.68 214.78 C 125.44 214.88 139.07 212.15 151.74 206.78 C 176.50 196.26 196.22 176.54 206.74 151.78 C 212.11 139.11 214.84 125.48 214.74 111.72 C 214.84 97.96 212.11 84.33 206.74 71.67 C 196.21 46.91 176.50 27.20 151.74 16.67 C 139.07 11.30 125.44 8.57 111.68 8.67 C 97.92 8.57 84.29 11.30 71.63 16.67 C 46.88 27.20 27.16 46.92 16.63 71.67 C 11.26 84.33 8.53 97.96 8.63 111.72 C 8.53 125.48 11.26 139.11 16.63 151.78 C 27.16 176.54 46.87 196.25 71.63 206.78 C 84.29 212.15 97.92 214.87 111.68 214.77 Z M 33.83 188.68 L 29.53 180.68 Q 36.00 179.00 46.50 170.10 L 49.93 178.37 C 47.04 180.73 44.01 182.92 40.86 184.92 C 38.62 186.36 36.27 187.62 33.83 188.68 Z M 178.69 179.23 Q 145.82 202.42 111.69 202.42 Q 77.56 202.42 44.69 179.23 Q 43.00 171.18 42.00 163.28 C 41.40 158.10 41.09 152.88 41.09 147.66 C 41.08 143.32 41.30 138.98 41.73 134.66 C 42.16 130.44 42.81 126.25 43.67 122.10 Q 53.23 118.77 64.77 115.65 Q 76.31 112.53 88.39 110.55 C 103.78 107.91 119.50 107.91 134.89 110.55 Q 146.96 112.55 158.57 115.65 Q 170.18 118.75 179.57 122.10 C 180.43 126.25 181.07 130.44 181.50 134.66 C 181.93 138.98 182.15 143.32 182.14 147.66 C 182.14 152.88 181.85 158.09 181.28 163.28 C 180.69 168.64 179.80 173.97 178.60 179.23 Z M 52.40 174.07 Q 81.83 193.83 111.68 193.83 Q 141.53 193.83 171.00 174.07 C 172.78 165.38 173.68 156.53 173.68 147.66 Q 173.68 142.71 173.31 137.94 Q 172.94 133.17 172.18 128.54 C 161.62 125.01 150.84 122.20 139.91 120.11 C 130.63 118.25 121.19 117.24 111.72 117.11 C 102.25 117.24 92.81 118.25 83.53 120.11 C 72.60 122.20 61.82 125.01 51.26 128.54 Q 50.51 133.16 50.14 137.94 C 49.88 141.12 49.76 144.36 49.76 147.66 C 49.76 156.53 50.66 165.38 52.44 174.07 Z M 73.88 104.16 C 70.16 104.12 66.67 102.36 64.43 99.39 C 59.14 92.74 59.14 83.32 64.43 76.67 C 66.66 73.70 70.16 71.95 73.88 71.95 C 77.60 71.95 81.10 73.70 83.33 76.67 C 88.62 83.32 88.62 92.74 83.33 99.39 C 81.09 102.36 77.60 104.12 73.88 104.16 Z M 149.48 104.16 C 145.75 104.13 142.25 102.37 140.00 99.39 C 134.71 92.74 134.71 83.32 140.00 76.67 C 142.23 73.70 145.73 71.95 149.45 71.95 C 153.17 71.95 156.67 73.70 158.90 76.67 C 164.19 83.32 164.19 92.74 158.90 99.39 C 156.67 102.35 153.19 104.11 149.48 104.16 Z M 189.54 188.68 C 187.11 187.62 184.77 186.36 182.54 184.92 C 179.39 182.92 176.36 180.73 173.47 178.37 L 176.90 170.10 Q 187.43 179.01 193.90 180.73 Z M 176.22 137.35 L 175.68 128.76 C 183.60 128.31 191.42 126.72 198.88 124.03 C 205.14 121.73 210.84 118.15 215.63 113.51 L 221.63 119.73 C 216.09 125.05 209.51 129.16 202.30 131.82 C 193.91 134.89 185.13 136.75 176.22 137.35 Z" stroke-linecap="round"/>
</g>
</g>
</g>

  </svg>